<?xml version="1.0" standalone="no"?>
<!DOCTYPE svg PUBLIC "-//W3C//DTD SVG 20010904//EN"
 "http://www.w3.org/TR/2001/REC-SVG-20010904/DTD/svg10.dtd">
<svg version="1.0" xmlns="http://www.w3.org/2000/svg"
 width="720.000000pt" height="720.000000pt" viewBox="0 0 720.000000 720.000000"
 preserveAspectRatio="xMidYMid meet">

<g transform="translate(0.000000,720.000000) scale(0.100000,-0.100000)"
fill="#000000" stroke="none">
<path d="M3460 6824 c-19 -2 -77 -9 -129 -15 -114 -13 -294 -56 -416 -99 -645
-228 -1141 -775 -1311 -1442 -62 -245 -57 -61 -61 -2615 l-3 -2333 260 0 260
0 3 2328 3 2327 22 97 c145 628 593 1075 1216 1210 146 32 454 32 602 0 623
-134 1080 -591 1216 -1216 32 -147 32 -455 0 -602 -135 -624 -594 -1082 -1216
-1216 -85 -18 -133 -22 -301 -22 -224 0 -318 14 -499 77 l-96 34 2 -275 3
-276 90 -23 c481 -122 1010 -59 1453 173 594 311 1000 889 1093 1554 7 52 13
176 13 275 0 200 -13 314 -54 485 -95 384 -284 715 -567 991 -313 305 -701
499 -1131 565 -96 14 -384 26 -452 18z"/>
<path d="M3455 5749 c-138 -18 -295 -78 -416 -159 -90 -61 -226 -201 -282
-292 -108 -173 -157 -353 -152 -558 8 -309 149 -586 394 -770 373 -281 908
-258 1251 54 l43 38 -352 352 -351 351 355 348 354 348 -53 48 c-210 190 -497
277 -791 240z"/>
<path d="M3000 1394 l0 -1074 605 0 605 0 0 1070 c0 762 -3 1070 -11 1070 -6
0 -46 -9 -88 -20 -160 -41 -287 -54 -501 -54 -219 0 -342 14 -517 58 l-93 24
0 -1074z m610 691 c91 0 195 3 233 7 l67 7 0 -739 0 -740 -305 0 -305 0 0 740
0 740 73 -7 c39 -5 146 -8 237 -8z"/>
</g>
</svg>
